<?xml version="1.0" standalone="no"?>
<!DOCTYPE svg PUBLIC "-//W3C//DTD SVG 20010904//EN"
 "http://www.w3.org/TR/2001/REC-SVG-20010904/DTD/svg10.dtd">
<svg version="1.0" xmlns="http://www.w3.org/2000/svg"
 width="165.000000pt" height="150.000000pt" viewBox="0 0 165.000000 150.000000"
 preserveAspectRatio="xMidYMid meet">

<g transform="translate(0.000000,150.000000) scale(0.100000,-0.100000)"
fill="#000000" stroke="none">
<path d="M863 1490 c-37 -16 -54 -51 -43 -90 14 -48 20 -55 58 -68 35 -12 74
0 100 30 20 25 18 86 -4 108 -23 24 -79 34 -111 20z"/>
<path d="M783 1313 c-33 -6 -49 -35 -88 -155 -37 -115 -43 -179 -21 -232 16
-38 58 -58 161 -78 l67 -12 -8 -75 c-14 -124 -10 -179 13 -203 30 -30 58 -11
72 49 32 143 53 275 47 298 -7 27 -37 44 -111 64 -22 6 -48 16 -58 24 -17 12
-17 15 3 62 12 27 23 51 25 53 2 2 16 -5 32 -17 15 -11 57 -25 93 -31 90 -15
97 -18 103 -39 3 -13 -8 -32 -35 -58 -27 -27 -37 -44 -34 -58 5 -17 -32 -260
-50 -331 -4 -14 -15 -31 -26 -38 -29 -21 -86 -1 -96 33 -8 29 -6 144 3 208 l6
41 -58 12 c-92 17 -138 38 -154 67 -39 74 -251 91 -335 27 -17 -13 -35 -24
-39 -24 -5 0 -28 -9 -52 -21 -57 -28 -102 -98 -142 -224 -35 -107 -74 -190
-93 -198 -7 -3 0 -6 15 -6 59 -2 111 45 174 159 17 30 41 83 53 117 12 35 26
61 30 58 4 -2 10 -45 14 -94 8 -110 -5 -174 -46 -218 -28 -28 -33 -45 -55
-185 -14 -84 -25 -161 -24 -170 5 -59 5 -75 -3 -95 -7 -22 -5 -23 43 -23 l51
0 0 36 c0 20 -5 54 -11 75 -12 39 -12 43 38 216 8 29 20 53 27 53 7 0 34 19
60 41 26 23 49 39 52 36 4 -3 -1 -28 -11 -56 l-16 -50 80 -124 c45 -68 81
-131 81 -140 0 -10 4 -17 9 -17 6 0 7 -16 4 -35 l-6 -35 43 0 42 0 -7 37 c-11
62 -35 123 -87 227 l-49 98 24 37 c14 21 35 61 47 89 12 29 27 52 32 52 6 0
59 -18 118 -39 59 -22 138 -45 176 -51 127 -21 114 -12 108 -83 -3 -34 -12
-111 -20 -170 -7 -62 -10 -117 -5 -130 5 -12 5 -32 0 -44 -8 -22 -6 -23 42
-23 l51 0 -6 32 c-3 18 -9 49 -12 68 -8 48 75 370 95 370 4 0 31 -7 61 -16
l53 -16 -7 -60 c-3 -34 -6 -70 -6 -82 0 -33 -46 -76 -81 -76 -27 0 -30 -3 -24
-22 4 -13 9 -31 11 -40 7 -23 16 -22 63 1 50 26 61 41 94 130 15 42 37 99 47
126 23 61 16 76 -58 120 -92 54 -91 47 -28 174 56 110 56 111 92 111 36 0 78
18 126 53 26 19 29 19 46 4 25 -22 48 -21 74 3 30 27 27 68 -8 116 -17 23 -36
60 -44 84 -10 30 -26 50 -57 71 -37 26 -43 35 -43 64 0 34 -12 46 -25 25 -10
-15 -35 -12 -35 5 0 36 -34 7 -45 -38 -4 -15 -15 -32 -25 -37 -9 -5 -54 -39
-100 -75 -45 -36 -85 -64 -87 -61 -3 2 0 14 7 26 25 47 -7 69 -137 95 -29 6
-72 44 -113 100 -22 31 -71 65 -89 64 -9 -1 -26 -4 -38 -6z m690 -415 c-16
-17 -100 -54 -107 -47 -3 2 5 25 16 51 l20 46 44 -16 c40 -15 42 -17 27 -34z"/>
</g>
</svg>
