<?xml version="1.0" standalone="no"?>
<!DOCTYPE svg PUBLIC "-//W3C//DTD SVG 20010904//EN"
 "http://www.w3.org/TR/2001/REC-SVG-20010904/DTD/svg10.dtd">
<svg version="1.0" xmlns="http://www.w3.org/2000/svg"
 width="59.000000pt" height="96.000000pt" viewBox="0 0 59.000000 96.000000"
 preserveAspectRatio="xMidYMid meet">

<g transform="translate(0.000000,96.000000) scale(0.100000,-0.100000)"
fill="#000000" stroke="none">
<path d="M277 912 c-19 -20 -23 -67 -7 -77 15 -9 12 -25 -4 -19 -8 3 -17 16
-20 30 -5 20 -12 24 -45 24 -24 0 -48 -8 -64 -21 -24 -18 -27 -27 -26 -77 1
-36 -6 -76 -19 -110 -16 -43 -18 -59 -10 -83 6 -16 8 -39 5 -51 -8 -29 14 -47
66 -54 40 -6 46 -10 49 -35 4 -26 -9 -70 -33 -109 -5 -8 -13 -25 -19 -37 -5
-13 -14 -23 -20 -23 -6 0 -23 -26 -36 -57 -14 -32 -41 -77 -61 -100 -33 -41
-36 -63 -9 -63 7 0 21 -9 31 -20 12 -13 31 -20 57 -20 43 0 52 19 16 35 -35
16 -36 76 -1 123 48 66 76 92 100 92 12 0 27 9 33 20 11 21 11 21 41 -5 17
-14 37 -25 45 -25 10 0 13 -7 9 -23 -4 -16 5 -37 33 -75 22 -29 45 -73 52 -97
7 -25 17 -48 21 -51 5 -3 23 1 41 9 18 8 45 19 61 25 17 8 27 19 27 33 0 18
-4 21 -29 16 -21 -4 -36 0 -52 13 -12 11 -28 20 -35 20 -21 0 -54 75 -54 123
0 30 -12 70 -36 122 -35 76 -38 99 -10 76 17 -14 36 -7 36 13 0 7 -13 22 -30
34 -16 13 -30 28 -30 35 0 14 137 60 151 51 5 -3 10 -20 10 -37 1 -21 5 -11
11 28 7 42 6 61 -1 63 -6 2 -8 9 -4 15 9 16 -30 -14 -40 -30 -5 -8 -30 -13
-62 -13 -45 0 -55 3 -56 18 -3 78 -12 144 -23 160 -5 9 -1 15 14 19 18 5 21
12 18 39 -3 28 -1 34 14 34 10 0 18 5 18 10 0 6 -7 10 -15 10 -8 0 -24 9 -35
20 -25 25 -52 26 -73 2z"/>
<path d="M523 450 c0 -30 2 -43 4 -27 2 15 2 39 0 55 -2 15 -4 2 -4 -28z"/>
<path d="M533 340 c0 -25 2 -35 4 -22 2 12 2 32 0 45 -2 12 -4 2 -4 -23z"/>
<path d="M542 225 c0 -16 2 -22 5 -12 2 9 2 23 0 30 -3 6 -5 -1 -5 -18z"/>
<path d="M551 114 c0 -11 3 -14 6 -6 3 7 2 16 -1 19 -3 4 -6 -2 -5 -13z"/>
</g>
</svg>
