<?xml version="1.0" standalone="no"?>
<!DOCTYPE svg PUBLIC "-//W3C//DTD SVG 20010904//EN"
 "http://www.w3.org/TR/2001/REC-SVG-20010904/DTD/svg10.dtd">
<svg version="1.0" xmlns="http://www.w3.org/2000/svg"
 width="55.000000pt" height="96.000000pt" viewBox="0 0 55.000000 96.000000"
 preserveAspectRatio="xMidYMid meet">

<g transform="translate(0.000000,96.000000) scale(0.100000,-0.100000)"
fill="#000000" stroke="none">
<path d="M453 928 c-16 -18 -43 -50 -58 -71 -23 -30 -33 -37 -51 -33 -19 5
-31 -4 -68 -53 l-46 -59 -77 -7 c-61 -6 -81 -12 -100 -31 -22 -22 -23 -30 -23
-154 0 -130 0 -132 28 -159 17 -18 55 -36 103 -50 71 -21 78 -27 125 -84 27
-34 57 -69 66 -79 14 -14 16 -22 7 -42 -8 -18 -8 -35 0 -63 l11 -38 -5 40 c-4
38 -2 42 81 127 61 62 84 92 80 105 -3 10 -17 61 -32 114 l-26 97 26 44 c14
25 26 49 26 55 0 6 -31 50 -70 97 -38 48 -70 89 -70 91 0 2 25 45 55 95 30 49
53 90 52 90 -2 0 -17 -15 -34 -32z m-42 -260 l62 -81 -26 -47 c-26 -46 -26
-49 -12 -90 8 -23 15 -44 15 -46 0 -12 -24 2 -85 53 l-68 56 -46 -13 c-25 -7
-57 -15 -70 -18 l-24 -5 7 68 c4 38 9 72 12 76 2 5 21 11 42 15 44 8 66 25 94
76 12 21 25 38 29 38 5 0 36 -37 70 -82z m-62 -295 c40 -30 77 -48 95 -49 23
-1 32 -7 39 -27 7 -22 3 -33 -25 -67 -18 -22 -38 -40 -44 -40 -6 0 -37 39 -68
86 -40 60 -66 88 -87 96 -16 5 -29 14 -29 19 0 8 30 25 49 28 2 1 33 -20 70
-46z"/>
<path d="M82 837 c-12 -13 -22 -32 -22 -43 0 -30 37 -64 68 -64 35 0 49 10 61
43 11 29 1 63 -23 79 -22 15 -63 7 -84 -15z"/>
</g>
</svg>
