<?xml version="1.0" standalone="no"?>
<!DOCTYPE svg PUBLIC "-//W3C//DTD SVG 20010904//EN"
 "http://www.w3.org/TR/2001/REC-SVG-20010904/DTD/svg10.dtd">
<svg version="1.0" xmlns="http://www.w3.org/2000/svg"
 width="109.000000pt" height="96.000000pt" viewBox="0 0 109.000000 96.000000"
 preserveAspectRatio="xMidYMid meet">

<g transform="translate(0.000000,96.000000) scale(0.100000,-0.100000)"
fill="#000000" stroke="none">
<path d="M139 950 c-6 -4 -19 -6 -28 -4 -9 3 -22 0 -30 -5 -12 -8 -9 -15 15
-43 21 -24 37 -61 53 -121 13 -48 26 -85 31 -82 4 3 11 31 15 62 11 94 45 155
66 122 5 -8 17 -40 26 -71 9 -32 19 -58 22 -58 3 0 16 33 29 73 27 89 38 104
84 112 35 7 38 5 73 -44 40 -56 52 -56 75 -1 17 42 46 48 79 16 31 -30 49 -32
77 -11 29 22 48 18 77 -15 38 -42 40 -42 88 23 40 53 97 24 123 -63 l14 -45 7
30 c14 62 18 71 37 92 11 12 17 26 14 32 -8 12 -928 12 -947 1z"/>
<path d="M542 724 c-14 -10 -22 -25 -22 -45 0 -35 19 -38 59 -8 15 11 42 21
59 21 36 1 40 9 16 32 -20 20 -83 21 -112 0z"/>
<path d="M710 700 c0 -10 209 -155 214 -148 2 2 15 38 29 81 l26 77 -135 0
c-81 0 -134 -4 -134 -10z"/>
<path d="M310 617 c-76 -53 -92 -79 -59 -100 13 -8 32 0 89 38 92 64 97 70 75
95 -10 11 -21 20 -24 20 -3 -1 -40 -24 -81 -53z"/>
<path d="M581 649 c-20 -16 -22 -22 -11 -29 28 -18 90 11 90 42 0 16 -56 7
-79 -13z"/>
<path d="M399 573 c-103 -70 -129 -94 -129 -119 0 -16 26 -53 78 -111 l77 -88
0 -73 c0 -65 3 -76 24 -93 46 -38 51 -29 51 94 l0 112 -55 57 c-30 31 -55 59
-55 61 0 8 76 57 87 57 7 0 13 -17 15 -37 3 -33 10 -42 53 -71 28 -18 60 -35
73 -38 25 -7 72 2 72 14 -1 4 -29 23 -63 43 l-62 36 -11 81 c-5 44 -16 87 -23
96 -23 27 -74 19 -132 -21z"/>
<path d="M219 343 c-21 -68 -32 -87 -87 -143 -64 -67 -73 -93 -40 -114 27 -17
169 128 197 201 l21 54 -32 40 c-17 21 -32 39 -33 39 -1 0 -12 -35 -26 -77z"/>
<path d="M965 236 c-8 -19 -15 -42 -15 -50 0 -19 -40 -64 -46 -51 -30 62 -40
79 -49 81 -5 2 -22 -14 -36 -34 -21 -31 -35 -40 -78 -50 -29 -7 -57 -10 -62
-7 -11 7 -61 -18 -78 -39 -12 -14 11 -16 238 -16 260 0 271 2 236 40 -8 9 -27
47 -42 85 -15 38 -34 70 -41 73 -7 2 -19 -12 -27 -32z"/>
</g>
</svg>
