<?xml version="1.0" standalone="no"?>
<!DOCTYPE svg PUBLIC "-//W3C//DTD SVG 20010904//EN"
 "http://www.w3.org/TR/2001/REC-SVG-20010904/DTD/svg10.dtd">
<svg version="1.0" xmlns="http://www.w3.org/2000/svg"
 width="52.000000pt" height="96.000000pt" viewBox="0 0 52.000000 96.000000"
 preserveAspectRatio="xMidYMid meet">

<g transform="translate(0.000000,96.000000) scale(0.100000,-0.100000)"
fill="#000000" stroke="none">
<path d="M264 795 c-7 -19 -14 -39 -14 -44 0 -19 -61 -42 -103 -39 l-42 3 3
38 c3 33 0 38 -15 35 -14 -3 -18 -12 -17 -48 1 -25 7 -65 13 -90 13 -46 10
-185 -4 -227 -6 -18 -3 -23 9 -23 20 0 35 37 43 103 5 38 10 47 25 47 11 0 28
5 40 11 24 13 28 9 31 -27 2 -18 9 -30 20 -32 14 -3 17 5 17 50 0 68 -10 85
-38 67 -27 -17 -34 -10 -26 29 4 21 17 38 38 50 22 13 36 32 45 61 7 24 15 49
18 57 3 9 -1 14 -11 14 -10 0 -23 -15 -32 -35z"/>
<path d="M144 766 c-8 -21 3 -36 27 -36 15 0 20 6 17 22 -4 27 -35 37 -44 14z"/>
<path d="M290 401 c0 -5 7 -14 15 -21 8 -7 15 -20 15 -30 0 -9 16 -31 36 -49
38 -35 40 -58 6 -53 -19 3 -22 -2 -22 -32 0 -20 0 -39 -1 -43 0 -4 4 -9 10
-11 6 -2 11 8 11 22 0 28 6 31 44 17 19 -8 27 -21 37 -66 7 -31 17 -54 23 -52
6 2 10 13 8 23 -13 71 -13 153 0 184 15 36 11 82 -7 80 -5 0 -10 -10 -10 -22
0 -30 -28 -44 -62 -33 -19 7 -35 24 -48 53 -12 26 -26 42 -37 42 -10 0 -18 -4
-18 -9z"/>
<path d="M394 359 c-10 -17 13 -36 27 -22 12 12 4 33 -11 33 -5 0 -12 -5 -16
-11z"/>
</g>
</svg>
