<?xml version="1.0" standalone="no"?>
<!DOCTYPE svg PUBLIC "-//W3C//DTD SVG 20010904//EN"
 "http://www.w3.org/TR/2001/REC-SVG-20010904/DTD/svg10.dtd">
<svg version="1.0" xmlns="http://www.w3.org/2000/svg"
 width="76.000000pt" height="116.000000pt" viewBox="0 0 76.000000 116.000000"
 preserveAspectRatio="xMidYMid meet">

<g transform="translate(0.000000,116.000000) scale(0.100000,-0.100000)"
fill="#000000" stroke="none">
<path d="M464 865 c-10 -15 -13 -32 -9 -42 5 -10 7 -22 6 -27 -1 -5 7 -18 18
-30 19 -20 19 -24 5 -74 -10 -32 -21 -52 -30 -52 -10 0 -13 7 -8 24 3 13 1 27
-5 30 -7 5 -11 -13 -11 -53 0 -57 -13 -81 -26 -47 -8 22 -36 7 -32 -18 2 -15
9 -20 26 -18 15 2 22 -2 22 -14 0 -11 -6 -15 -20 -11 -10 3 -24 -1 -31 -9 -6
-8 -20 -14 -30 -14 -10 0 -26 -11 -35 -25 -9 -14 -22 -25 -29 -25 -22 0 -74
-50 -69 -65 9 -23 -26 -118 -52 -143 -14 -12 -38 -22 -54 -22 -71 0 -22 -38
55 -43 39 -2 40 -2 45 39 8 52 89 168 106 151 15 -15 -8 -77 -38 -102 -17 -14
-29 -27 -27 -29 9 -8 77 -14 86 -8 5 4 10 27 11 52 1 112 19 131 116 129 29
-1 62 3 73 9 23 13 49 77 57 145 3 26 9 67 12 91 5 37 3 47 -15 62 -23 20 -28
44 -10 44 8 0 8 5 -1 15 -7 8 -10 25 -6 38 14 59 -67 93 -100 42z"/>
<path d="M426 731 c-4 -7 -5 -15 -2 -18 9 -9 19 4 14 18 -4 11 -6 11 -12 0z"/>
<path d="M391 654 c0 -11 3 -14 6 -6 3 7 2 16 -1 19 -3 4 -6 -2 -5 -13z"/>
<path d="M382 375 c0 -16 2 -22 5 -12 2 9 2 23 0 30 -3 6 -5 -1 -5 -18z"/>
</g>
</svg>
