<?xml version="1.0" standalone="no"?>
<!DOCTYPE svg PUBLIC "-//W3C//DTD SVG 20010904//EN"
 "http://www.w3.org/TR/2001/REC-SVG-20010904/DTD/svg10.dtd">
<svg version="1.0" xmlns="http://www.w3.org/2000/svg"
 width="126.000000pt" height="192.000000pt" viewBox="0 0 126.000000 192.000000"
 preserveAspectRatio="xMidYMid meet">

<g transform="translate(0.000000,192.000000) scale(0.100000,-0.100000)"
fill="#000000" stroke="none">
<path d="M693 1465 c0 -22 2 -30 4 -17 2 12 2 30 0 40 -3 9 -5 -1 -4 -23z"/>
<path d="M787 1459 c-20 -12 -47 -61 -47 -86 0 -10 9 -24 21 -31 16 -10 18
-16 9 -27 -9 -11 -1 -24 35 -61 26 -26 40 -44 33 -41 -10 3 -22 -19 -42 -79
-16 -46 -33 -84 -37 -84 -5 0 -9 4 -9 10 0 5 -7 7 -15 4 -10 -4 -15 0 -15 11
0 9 5 13 10 10 6 -4 10 10 10 34 0 30 -3 39 -14 35 -10 -4 -14 -28 -15 -92 -1
-52 -6 -89 -13 -93 -12 -8 -42 0 -34 9 3 3 1 11 -5 18 -10 12 0 117 17 171 3
10 -1 7 -9 -7 -8 -14 -18 -58 -22 -97 -5 -49 -11 -73 -20 -73 -21 0 -27 -31
-11 -55 12 -19 13 -29 3 -54 -9 -26 -17 -31 -43 -31 -35 0 -60 -19 -74 -55 -6
-15 -25 -28 -57 -39 -61 -21 -117 -80 -101 -105 8 -14 5 -33 -15 -82 -13 -35
-28 -75 -32 -89 -19 -61 -71 -100 -135 -100 -34 0 -60 -9 -60 -21 0 -15 57
-39 93 -39 18 0 42 -7 53 -15 26 -19 70 -19 78 1 3 9 6 37 6 63 0 39 8 59 45
115 25 38 45 73 45 77 0 5 6 9 13 9 6 0 24 14 38 31 33 40 52 32 43 -19 -9
-54 -51 -121 -90 -144 -52 -31 -44 -48 24 -50 63 -2 114 1 119 6 2 2 -1 31 -6
65 -9 53 -7 70 11 124 26 78 32 90 46 95 9 3 12 -20 13 -80 0 -45 4 -103 9
-128 6 -33 8 -10 7 85 l-2 129 45 9 c30 6 50 5 62 -2 24 -15 45 -14 98 5 33
12 50 25 63 51 9 18 17 39 17 46 0 7 7 23 17 36 10 15 17 47 18 85 1 34 10 94
19 134 20 91 11 140 -35 173 -30 21 -35 44 -9 44 20 0 23 20 5 35 -17 14 -21
70 -5 70 14 0 -17 72 -37 88 -20 14 -91 15 -116 1z m-89 -556 c-2 -11 -14 -19
-31 -21 -22 -3 -27 1 -27 17 0 17 6 21 31 21 24 0 30 -4 27 -17z"/>
<path d="M702 1340 c0 -14 2 -19 5 -12 2 6 2 18 0 25 -3 6 -5 1 -5 -13z"/>
<path d="M711 1233 c0 -12 -7 -26 -15 -30 -12 -7 -12 -11 -1 -26 12 -16 14
-16 29 -2 18 18 21 35 7 35 -5 0 -12 10 -14 23 l-4 22 -2 -22z"/>
<path d="M643 165 c0 -27 2 -38 4 -22 2 15 2 37 0 50 -2 12 -4 0 -4 -28z"/>
</g>
</svg>
